<svg xmlns="http://www.w3.org/2000/svg">
	<g transform="scale(0.3, 0.3)">
    <path
        d="M7.86138 64.5956C15.3854 39.5024 36.0822 20.0662 61.8779 14.3895C52.6877 25.4392 45.3217 44.8969 42.0718 64.5956H49.6976C54.5225 36.8838 67.6591 12.6818 77.4833 12.6818C87.3076 12.6818 100.445 36.8839 105.27 64.5956H112.888C111.043 53.4429 107.857 42.2388 103.62 32.4501C100.076 24.2613 96.5071 18.472 93.1328 14.3997C118.908 20.0889 139.586 39.5168 147.106 64.5956H154.967C145.761 30.3771 114.514 5.11816 77.4833 5.11816C40.4527 5.11816 9.20655 30.3771 0 64.5956H7.86138Z"
        fill="#6ea3cd"></path>
    <path
        d="M190.064 7.01821V20.5445H190.294C192.126 15.8495 194.97 12.2357 198.827 9.70061C202.682 7.16811 207.285 6.01151 212.63 6.23551V13.2781C209.346 13.1295 206.368 13.5575 203.696 14.5642C201.021 15.5702 198.712 17.0062 196.765 18.8682C194.818 20.7316 193.31 22.9483 192.24 25.5197C191.171 28.0905 190.637 30.9043 190.637 33.9599V64.7023H183.42V7.01821H190.064Z"
        fill="#333D47"></path>
    <path
        d="M220.99 15.9613C222.211 13.5021 223.872 11.4895 225.974 9.92471C228.073 8.35921 230.536 7.20461 233.362 6.45891C236.186 5.71511 239.318 5.34131 242.755 5.34131C245.35 5.34131 247.948 5.58371 250.544 6.06791C253.139 6.55341 255.47 7.46561 257.531 8.80651C259.593 10.148 261.271 12.0312 262.571 14.452C263.869 16.8748 264.519 20.0242 264.519 23.8989V54.5296C264.519 57.3626 265.931 58.7775 268.757 58.7775C269.596 58.7775 270.361 58.6289 271.049 58.3303V64.2552C270.207 64.4051 269.462 64.5174 268.814 64.5907C268.164 64.6653 267.343 64.7023 266.352 64.7023C264.519 64.7023 263.047 64.4612 261.941 63.9757C260.834 63.4915 259.975 62.8019 259.364 61.9076C258.752 61.0132 258.352 59.9511 258.161 58.7212C257.97 57.492 257.875 56.1326 257.875 54.6411H257.646C256.347 56.5051 255.03 58.1624 253.694 59.6155C252.356 61.0693 250.867 62.2814 249.227 63.2491C247.583 64.2181 245.713 64.9625 243.613 65.485C241.512 66.0055 239.012 66.2671 236.111 66.2671C233.362 66.2671 230.785 65.9494 228.379 65.3173C225.974 64.6852 223.872 63.6785 222.078 62.2987C220.283 60.9208 218.871 59.1685 217.84 57.0448C216.81 54.9205 216.294 52.4052 216.294 49.4989C216.294 45.4743 217.21 42.3269 219.043 40.052C220.876 37.7798 223.299 36.0472 226.316 34.8543C229.332 33.6627 232.731 32.8245 236.512 32.339C240.291 31.8548 244.129 31.3885 248.023 30.9413C249.55 30.7927 250.888 30.6058 252.033 30.3825C253.178 30.1586 254.132 29.7675 254.897 29.2087C255.659 28.6492 256.252 27.8863 256.672 26.9167C257.091 25.949 257.303 24.6808 257.303 23.116C257.303 20.7315 256.902 18.775 256.099 17.2465C255.298 15.72 254.189 14.5079 252.777 13.6136C251.364 12.7192 249.722 12.1043 247.851 11.7687C245.979 11.4338 243.975 11.266 241.839 11.266C237.256 11.266 233.514 12.3281 230.613 14.4517C227.709 16.576 226.182 19.9856 226.031 24.6807H218.815C219.043 21.3272 219.767 18.4211 220.99 15.9613ZM257.074 33.1773C256.615 33.9983 255.736 34.5941 254.438 34.966C253.139 35.3399 251.994 35.6001 251.003 35.7487C247.948 36.2705 244.796 36.7369 241.552 37.1457C238.306 37.5565 235.347 38.1708 232.674 38.9906C230.001 39.8116 227.805 40.9854 226.088 42.5119C224.37 44.0404 223.51 46.2201 223.51 49.0518C223.51 50.8405 223.872 52.4245 224.599 53.803C225.324 55.1828 226.297 56.3738 227.52 57.3798C228.741 58.3864 230.154 59.1513 231.758 59.6718C233.362 60.1943 235.003 60.4545 236.684 60.4545C239.433 60.4545 242.067 60.0456 244.588 59.2246C247.107 58.4055 249.301 57.2126 251.173 55.6472C253.044 54.0824 254.533 52.1821 255.642 49.9462C256.748 47.7103 257.303 45.1772 257.303 42.3442V33.1774L257.074 33.1773Z"
        fill="#333D47"></path>
    <path
        d="M286.054 7.01831V16.9672H286.283C287.658 13.4651 290.102 10.6512 293.614 8.52701C297.126 6.40341 300.984 5.34131 305.184 5.34131C309.307 5.34131 312.762 5.86381 315.55 6.90611C318.337 7.95111 320.571 9.42141 322.252 11.3217C323.931 13.2227 325.115 15.5524 325.803 18.3088C326.49 21.0672 326.834 24.1604 326.834 27.5879V64.7024H319.616V28.7054C319.616 26.2462 319.388 23.9542 318.93 21.8306C318.471 19.7063 317.67 17.8615 316.525 16.2967C315.378 14.7312 313.832 13.502 311.884 12.6076C309.938 11.7132 307.512 11.2661 304.611 11.2661C301.708 11.2661 299.13 11.7688 296.879 12.7754C294.626 13.7814 292.716 15.1612 291.152 16.9116C289.586 18.6633 288.364 20.7506 287.487 23.1714C286.608 25.5942 286.129 28.2218 286.054 31.0528V64.7022H278.838V7.01831H286.054Z"
        fill="#333D47"></path>
    <path
        d="M341.951 15.9613C343.172 13.5021 344.833 11.4895 346.936 9.92471C349.035 8.35921 351.497 7.20461 354.324 6.45891C357.147 5.71511 360.28 5.34131 363.717 5.34131C366.312 5.34131 368.909 5.58371 371.506 6.06791C374.1 6.55341 376.431 7.46561 378.493 8.80651C380.555 10.148 382.233 12.0312 383.533 14.452C384.831 16.8748 385.481 20.0242 385.481 23.8989V54.5296C385.481 57.3626 386.892 58.7775 389.719 58.7775C390.558 58.7775 391.323 58.6289 392.011 58.3303V64.2552C391.169 64.4051 390.424 64.5174 389.776 64.5907C389.126 64.6653 388.304 64.7023 387.313 64.7023C385.48 64.7023 384.009 64.4612 382.903 63.9757C381.796 63.4915 380.936 62.8019 380.326 61.9076C379.714 61.0132 379.313 59.9511 379.122 58.7212C378.932 57.492 378.837 56.1326 378.837 54.6411H378.608C377.309 56.5051 375.991 58.1624 374.655 59.6155C373.318 61.0693 371.829 62.2814 370.188 63.2491C368.545 64.2181 366.674 64.9625 364.575 65.485C362.474 66.0055 359.974 66.2671 357.073 66.2671C354.324 66.2671 351.746 65.9494 349.341 65.3173C346.936 64.6852 344.833 63.6785 343.04 62.2987C341.245 60.9208 339.833 59.1685 338.802 57.0448C337.771 54.9205 337.256 52.4052 337.256 49.4989C337.256 45.4743 338.172 42.3269 340.005 40.052C341.838 37.7798 344.261 36.0472 347.278 34.8543C350.294 33.6627 353.693 32.8245 357.474 32.339C361.253 31.8548 365.091 31.3885 368.985 30.9413C370.512 30.7927 371.849 30.6058 372.995 30.3825C374.14 30.1586 375.094 29.7675 375.859 29.2087C376.621 28.6492 377.214 27.8863 377.633 26.9167C378.053 25.949 378.264 24.6808 378.264 23.116C378.264 20.7315 377.864 18.775 377.061 17.2465C376.259 15.72 375.151 14.5079 373.739 13.6136C372.326 12.7192 370.684 12.1043 368.813 11.7687C366.941 11.4338 364.936 11.266 362.8 11.266C358.218 11.266 354.475 12.3281 351.575 14.4517C348.671 16.576 347.144 19.9856 346.992 24.6807H339.776C340.005 21.3272 340.729 18.4211 341.951 15.9613ZM378.036 33.1773C377.577 33.9983 376.698 34.5941 375.4 34.966C374.1 35.3399 372.955 35.6001 371.964 35.7487C368.909 36.2705 365.758 36.7369 362.513 37.1457C359.267 37.5565 356.308 38.1708 353.636 38.9906C350.963 39.8116 348.767 40.9854 347.049 42.5119C345.332 44.0404 344.472 46.2201 344.472 49.0518C344.472 50.8405 344.833 52.4245 345.56 53.803C346.286 55.1828 347.259 56.3738 348.481 57.3798C349.702 58.3864 351.116 59.1513 352.72 59.6718C354.324 60.1943 355.964 60.4545 357.646 60.4545C360.395 60.4545 363.029 60.0456 365.55 59.2246C368.069 58.4055 370.263 57.2126 372.135 55.6472C374.006 54.0824 375.495 52.1821 376.603 49.9462C377.709 47.7103 378.264 45.1772 378.264 42.3442V33.1774L378.036 33.1773Z"
        fill="#333D47"></path>
		</g>
</svg>
