<svg width="40" height="35" viewBox="0 0 40 35" fill="none" xmlns="http://www.w3.org/2000/svg">
<path d="M16.8462 24.5769L12.4231 13.6431L8 24.5769M16.8462 24.5769C16.8462 25.75 16.3802 26.875 15.5507 27.7045C14.7212 28.534 13.5961 29 12.4231 29C11.25 29 10.125 28.534 9.29549 27.7045C8.466 26.875 8 25.75 8 24.5769M16.8462 24.5769H8M31 17.5L26.5769 7.20308L22.1538 17.5M31 17.5C31 18.6731 30.534 19.7981 29.7045 20.6276C28.875 21.4571 27.75 21.9231 26.5769 21.9231C25.4038 21.9231 24.2788 21.4571 23.4493 20.6276C22.6198 19.7981 22.1538 18.6731 22.1538 17.5M31 17.5H22.1538M9.76923 14.8462L29.2308 6M19.5 10.4231V6" stroke="#69A0C9" stroke-width="1.5" stroke-linecap="round" stroke-linejoin="round"/>
</svg>
