<svg width="40" height="35" viewBox="0 0 40 35" fill="none" xmlns="http://www.w3.org/2000/svg">
<g clip-path="url(#clip0_3655_2)">
<path d="M37 0C38.6569 0 40 1.34315 40 3V32C40 33.6569 38.6569 35 37 35H3C1.34315 35 4.42933e-08 33.6569 0 32V3C0 1.34315 1.34315 6.44255e-08 3 0H37ZM19.8477 12C13.7078 12 8.52652 16.3306 7 22.1973H8.30371C9.55127 17.8951 12.9827 14.5631 17.2598 13.5898C15.736 15.4843 14.5144 18.82 13.9756 22.1973H15.2402C16.0402 17.4461 18.2188 13.2969 19.8477 13.2969C21.4765 13.2977 23.6542 17.4466 24.4541 22.1973H25.7178C25.4118 20.2852 24.8831 18.3638 24.1807 16.6855C23.5931 15.2818 23.0018 14.2889 22.4424 13.5908C26.7159 14.5663 30.1438 17.8977 31.3906 22.1973H32.6943C31.1678 16.3307 25.9873 12.0002 19.8477 12Z" fill="#6EA3CD"/>
</g>
<defs>
<clipPath id="clip0_3655_2">
<rect width="40" height="35" fill="white"/>
</clipPath>
</defs>
</svg>
