<svg width="40" height="35" viewBox="0 0 40 35" fill="none" xmlns="http://www.w3.org/2000/svg">
<path d="M29.1154 9.36719L26.2717 12.9219L23.6051 11.5764L22.9713 11.2717L22.5651 11.8551L19.7969 16.0199L17.2326 14.0894L16.75 13.7344L16.2674 14.0902L13.3221 16.2986L10.4531 15.5877L10.0469 17.1623L13.2969 17.9748L13.6779 18.0764L13.9826 17.8473L16.75 15.7656L19.5174 17.8481L20.2031 18.3551L20.6857 17.6441L23.5295 13.3785L26.1441 14.6736L26.7291 14.9531L30.3854 10.3828L29.1154 9.36719ZM23.3004 19.8793L22.6154 20.7422L19.8472 24.1953L17.2326 22.2144L16.75 21.8594L16.2674 22.2152L13.4236 24.3481L10.6059 22.9506L9.89493 24.4236L13.1449 26.0486L13.5756 26.2518L13.9818 25.9731L16.75 23.8906L19.5174 25.9731L20.1519 26.4297L20.6346 25.8203L23.1736 22.6467L25.8142 26.5816L26.4496 27.4957L27.1346 26.6328L30.3846 22.5703L29.1154 21.5547L26.5764 24.7283L23.9357 20.7934L23.3004 19.8793Z" fill="#69A0C9"/>
</svg>
