<svg width="40" height="35" viewBox="0 0 40 35" fill="none" xmlns="http://www.w3.org/2000/svg">
<path d="M27.5833 21.445V12.5833C27.5833 10.1892 25.6442 8.25 23.25 8.25C20.8558 8.25 18.9167 10.1892 18.9167 12.5833V23.4167C18.9167 24.6083 17.9417 25.5833 16.75 25.5833C15.5583 25.5833 14.5833 24.6083 14.5833 23.4167V14.555C15.84 14.1 16.75 12.9083 16.75 11.5C16.75 9.70167 15.2983 8.25 13.5 8.25C11.7017 8.25 10.25 9.70167 10.25 11.5C10.25 12.9083 11.16 14.1 12.4167 14.555V23.4167C12.4167 25.8108 14.3558 27.75 16.75 27.75C19.1442 27.75 21.0833 25.8108 21.0833 23.4167V12.5833C21.0833 11.3917 22.0583 10.4167 23.25 10.4167C24.4417 10.4167 25.4167 11.3917 25.4167 12.5833V21.445C24.6952 21.7006 24.0873 22.203 23.7003 22.8633C23.3133 23.5237 23.1722 24.2996 23.3018 25.054C23.4314 25.8083 23.8234 26.4926 24.4086 26.9859C24.9939 27.4792 25.7346 27.7499 26.5 27.75C28.2983 27.75 29.75 26.2983 29.75 24.5C29.75 23.0917 28.84 21.9 27.5833 21.445Z" fill="#69A0C9"/>
</svg>
