<svg width="40" height="35" viewBox="0 0 40 35" fill="none" xmlns="http://www.w3.org/2000/svg">
<g clip-path="url(#clip0_4157_8869)">
<path d="M37 0C38.6569 0 40 1.34315 40 3V32C40 33.6569 38.6569 35 37 35H3C1.34315 35 4.42933e-08 33.6569 0 32V3C0 1.34315 1.34315 6.44255e-08 3 0H37Z" fill="#6EA3CD"/>
<mask id="mask0_4157_8869" style="mask-type:luminance" maskUnits="userSpaceOnUse" x="10" y="5" width="18" height="25">
<path d="M10.875 5.75V10.625C10.875 11.325 10.875 11.675 11.0113 11.9425C11.1311 12.1777 11.3223 12.3689 11.5575 12.4887C11.825 12.625 12.175 12.625 12.875 12.625H18.375M10.875 8.25V23.125C10.875 23.825 10.875 24.175 11.0113 24.4425C11.1311 24.6777 11.3223 24.8689 11.5575 24.9888C11.825 25.125 12.175 25.125 12.875 25.125H18.375" stroke="white" stroke-opacity="0.8"/>
<path d="M17.75 10.25C17.75 9.55 17.75 9.2 17.8863 8.9325C18.0061 8.69731 18.1973 8.50609 18.4325 8.38625C18.7 8.25 19.05 8.25 19.75 8.25H20.6712C20.9775 8.25 21.13 8.25 21.2738 8.285C21.4017 8.31561 21.5241 8.36623 21.6363 8.435C21.7613 8.51125 21.87 8.62 22.0862 8.835L22.1638 8.91375C22.38 9.13 22.4887 9.23875 22.6137 9.31625C22.7259 9.38502 22.8483 9.43564 22.9762 9.46625C23.12 9.5 23.2725 9.5 23.5788 9.5H25.75C26.45 9.5 26.8 9.5 27.0675 9.63625C27.3027 9.75609 27.4939 9.94731 27.6138 10.1825C27.75 10.45 27.75 10.8 27.75 11.5V15C27.75 15.7 27.75 16.05 27.6138 16.3175C27.4939 16.5527 27.3027 16.7439 27.0675 16.8637C26.8 17 26.45 17 25.75 17H19.75C19.05 17 18.7 17 18.4325 16.8637C18.1973 16.7439 18.0061 16.5527 17.8863 16.3175C17.75 16.05 17.75 15.7 17.75 15V10.25ZM17.75 22.75C17.75 22.05 17.75 21.7 17.8863 21.4325C18.0061 21.1973 18.1973 21.0061 18.4325 20.8863C18.7 20.75 19.05 20.75 19.75 20.75H20.6712C20.9775 20.75 21.13 20.75 21.2738 20.785C21.4021 20.815 21.5229 20.865 21.6363 20.935C21.7613 21.0112 21.87 21.12 22.0862 21.335L22.1638 21.4138C22.38 21.63 22.4887 21.7387 22.6137 21.8162C22.7271 21.8846 22.8479 21.9346 22.9762 21.9662C23.12 22 23.2725 22 23.5788 22H25.75C26.45 22 26.8 22 27.0675 22.1362C27.3027 22.2561 27.4939 22.4473 27.6138 22.6825C27.75 22.95 27.75 23.3 27.75 24V27.5C27.75 28.2 27.75 28.55 27.6138 28.8175C27.4939 29.0527 27.3027 29.2439 27.0675 29.3638C26.8 29.5 26.45 29.5 25.75 29.5H19.75C19.05 29.5 18.7 29.5 18.4325 29.3638C18.1973 29.2439 18.0061 29.0527 17.8863 28.8175C17.75 28.55 17.75 28.2 17.75 27.5V22.75Z" fill="white"/>
</mask>
<g mask="url(#mask0_4157_8869)">
<path d="M4 2H34V32H4V2Z" fill="white"/>
</g>
</g>
<defs>
<clipPath id="clip0_4157_8869">
<rect width="40" height="35" fill="white"/>
</clipPath>
</defs>
</svg>
