<svg width="40" height="35" viewBox="0 0 40 35" fill="none" xmlns="http://www.w3.org/2000/svg">
<g clip-path="url(#clip0_4166_141)">
<path d="M20 5C12.8201 5 7 10.8201 7 18C7 25.1799 12.8201 31 20 31C27.1799 31 33 25.1799 33 18C33 10.8201 27.1799 5 20 5ZM26.5 18C26.5 18.718 25.918 19.3 25.2 19.3H21.3V23.2C21.3 23.918 20.718 24.5 20 24.5C19.282 24.5 18.7 23.918 18.7 23.2V19.3H14.8C14.082 19.3 13.5 18.718 13.5 18C13.5 17.282 14.082 16.7 14.8 16.7H18.7V12.8C18.7 12.082 19.282 11.5 20 11.5C20.718 11.5 21.3 12.082 21.3 12.8V16.7H25.2C25.918 16.7 26.5 17.282 26.5 18Z" fill="#69A0C9"/>
</g>
<defs>
<clipPath id="clip0_4166_141">
<rect width="40" height="35" fill="white"/>
</clipPath>
</defs>
</svg>
