<svg width="40" height="35" viewBox="0 0 40 35" fill="none" xmlns="http://www.w3.org/2000/svg">
<g clip-path="url(#clip0_3993_31)">
<path d="M37 0C38.6569 0 40 1.34315 40 3V32C40 33.6569 38.6569 35 37 35H3C1.34315 35 4.42933e-08 33.6569 0 32V3C0 1.34315 1.34315 6.44255e-08 3 0H37Z" fill="#6EA3CD"/>
<path fill-rule="evenodd" clip-rule="evenodd" d="M20 28C21.3132 28 22.6136 27.7413 23.8268 27.2388C25.0401 26.7363 26.1425 25.9997 27.0711 25.0711C27.9997 24.1425 28.7363 23.0401 29.2388 21.8268C29.7413 20.6136 30 19.3132 30 18C30 16.6868 29.7413 15.3864 29.2388 14.1732C28.7363 12.9599 27.9997 11.8575 27.0711 10.9289C26.1425 10.0003 25.0401 9.26375 23.8268 8.7612C22.6136 8.25866 21.3132 8 20 8C17.3478 8 14.8043 9.05357 12.9289 10.9289C11.0536 12.8043 10 15.3478 10 18C10 20.6522 11.0536 23.1957 12.9289 25.0711C14.8043 26.9464 17.3478 28 20 28ZM14.4444 19.1111H25.5556V16.8889H14.4444V19.1111Z" fill="white"/>
</g>
<defs>
<clipPath id="clip0_3993_31">
<rect width="40" height="35" fill="white"/>
</clipPath>
</defs>
</svg>
