<svg width="40" height="35" viewBox="0 0 40 35" fill="none" xmlns="http://www.w3.org/2000/svg">
<g clip-path="url(#clip0_3646_817)">
<path d="M37 0C38.6569 0 40 1.34315 40 3V32C40 33.6569 38.6569 35 37 35H3C1.34315 35 4.42933e-08 33.6569 0 32V3C0 1.34315 1.34315 6.44255e-08 3 0H37Z" fill="#6EA3CD"/>
<path d="M11.1039 17.6975H15.2273C15.5628 17.6975 15.8821 17.6471 16.1851 17.5462C16.4881 17.4342 16.7533 17.2773 16.9806 17.0756C17.2078 16.874 17.3864 16.6331 17.5163 16.3529C17.657 16.0616 17.7273 15.7311 17.7273 15.3613C17.7273 14.6218 17.5217 14.0392 17.1104 13.6134C16.6992 13.1877 16.0715 12.9748 15.2273 12.9748H11.1039V17.6975ZM10 12H15.3085C15.7847 12 16.2338 12.0616 16.6559 12.1849C17.0888 12.3081 17.4622 12.4986 17.776 12.7563C18.1007 13.0028 18.355 13.3277 18.539 13.7311C18.7338 14.1232 18.8312 14.5882 18.8312 15.1261C18.8312 15.888 18.6418 16.549 18.263 17.1092C17.8842 17.6695 17.3215 18.028 16.5747 18.1849V18.2185C16.9535 18.2745 17.2674 18.381 17.5163 18.5378C17.7652 18.6835 17.9654 18.874 18.1169 19.1092C18.2793 19.3445 18.3929 19.619 18.4578 19.9328C18.5336 20.2353 18.5823 20.5658 18.604 20.9244C18.6148 21.1261 18.6256 21.3726 18.6364 21.6639C18.6472 21.9552 18.6689 22.2521 18.7014 22.5546C18.7338 22.8459 18.7825 23.126 18.8475 23.395C18.9232 23.6527 19.0206 23.8543 19.1397 24H17.9221C17.8572 23.888 17.8031 23.7535 17.7598 23.5966C17.7273 23.4286 17.7003 23.2605 17.6786 23.0924C17.6678 22.9132 17.657 22.7395 17.6462 22.5714C17.6353 22.4034 17.6245 22.2577 17.6137 22.1345C17.592 21.7087 17.5542 21.2885 17.5 20.8739C17.4568 20.4482 17.3539 20.0728 17.1916 19.7479C17.0401 19.4118 16.8128 19.1429 16.5098 18.9412C16.2176 18.7395 15.8117 18.6499 15.2922 18.6723H11.1039V24H10V12Z" fill="white"/>
<path d="M22.4675 19.2941H27.0292L24.7889 13.1429L22.4675 19.2941ZM24.2207 12H25.4545L30 24H28.8149L27.4026 20.2689H22.1266L20.7305 24H19.5616L24.2207 12Z" fill="white"/>
</g>
<defs>
<clipPath id="clip0_3646_817">
<rect width="40" height="35" fill="white"/>
</clipPath>
</defs>
</svg>
