<svg width="40" height="35" viewBox="0 0 40 35" fill="none" xmlns="http://www.w3.org/2000/svg">
<path fill-rule="evenodd" clip-rule="evenodd" d="M20 31C21.7072 31 23.3977 30.6637 24.9749 30.0104C26.5521 29.3571 27.9852 28.3995 29.1924 27.1924C30.3995 25.9852 31.3571 24.5521 32.0104 22.9749C32.6637 21.3977 33 19.7072 33 18C33 16.2928 32.6637 14.6023 32.0104 13.0251C31.3571 11.4479 30.3995 10.0148 29.1924 8.80761C27.9852 7.60045 26.5521 6.64288 24.9749 5.98957C23.3977 5.33625 21.7072 5 20 5C16.5522 5 13.2456 6.36964 10.8076 8.80761C8.36964 11.2456 7 14.5522 7 18C7 21.4478 8.36964 24.7544 10.8076 27.1924C13.2456 29.6304 16.5522 31 20 31ZM12.7778 18C12.7778 18.7977 13.4245 19.4444 14.2222 19.4444H25.7778C26.5755 19.4444 27.2222 18.7977 27.2222 18C27.2222 17.2023 26.5755 16.5556 25.7778 16.5556H14.2222C13.4245 16.5556 12.7778 17.2023 12.7778 18Z" fill="#69A0C9"/>
</svg>
