<svg width="40" height="35" viewBox="0 0 40 35" fill="none" xmlns="http://www.w3.org/2000/svg">
<g clip-path="url(#clip0_4157_8858)">
<path d="M37 0C38.6569 0 40 1.34315 40 3V32C40 33.6569 38.6569 35 37 35H3C1.34315 35 4.42933e-08 33.6569 0 32V3C0 1.34315 1.34315 6.44255e-08 3 0H37Z" fill="#6EA3CD"/>
<path d="M17.3077 23.3462L13.6538 14.3138L10 23.3462M17.3077 23.3462C17.3077 24.3152 16.9227 25.2446 16.2375 25.9298C15.5523 26.615 14.6229 27 13.6538 27C12.6848 27 11.7554 26.615 11.0702 25.9298C10.385 25.2446 10 24.3152 10 23.3462M17.3077 23.3462H10M29 17.5L25.3462 8.99385L21.6923 17.5M29 17.5C29 18.4691 28.615 19.3984 27.9298 20.0837C27.2446 20.7689 26.3152 21.1538 25.3462 21.1538C24.3771 21.1538 23.4477 20.7689 22.7625 20.0837C22.0773 19.3984 21.6923 18.4691 21.6923 17.5M29 17.5H21.6923M11.4615 15.3077L27.5385 8M19.5 11.6538V8" stroke="white" stroke-linecap="round" stroke-linejoin="round"/>
</g>
<defs>
<clipPath id="clip0_4157_8858">
<rect width="40" height="35" fill="white"/>
</clipPath>
</defs>
</svg>
