<svg width="40" height="35" viewBox="0 0 40 35" fill="none" xmlns="http://www.w3.org/2000/svg">
<g clip-path="url(#clip0_4157_8824)">
<path d="M37 0C38.6569 0 40 1.34315 40 3V32C40 33.6569 38.6569 35 37 35H3C1.34315 35 4.42933e-08 33.6569 0 32V3C0 1.34315 1.34315 6.44255e-08 3 0H37Z" fill="#6EA3CD"/>
<path d="M27 21.18V13C27 10.79 25.21 9 23 9C20.79 9 19 10.79 19 13V23C19 24.1 18.1 25 17 25C15.9 25 15 24.1 15 23V14.82C16.16 14.4 17 13.3 17 12C17 10.34 15.66 9 14 9C12.34 9 11 10.34 11 12C11 13.3 11.84 14.4 13 14.82V23C13 25.21 14.79 27 17 27C19.21 27 21 25.21 21 23V13C21 11.9 21.9 11 23 11C24.1 11 25 11.9 25 13V21.18C24.334 21.4159 23.7729 21.8797 23.4157 22.4892C23.0584 23.0988 22.9281 23.815 23.0478 24.5113C23.1674 25.2077 23.5293 25.8393 24.0695 26.2947C24.6097 26.7501 25.2935 26.9999 26 27C27.66 27 29 25.66 29 24C29 22.7 28.16 21.6 27 21.18Z" fill="white"/>
</g>
<defs>
<clipPath id="clip0_4157_8824">
<rect width="40" height="35" fill="white"/>
</clipPath>
</defs>
</svg>
