<svg width="40" height="35" viewBox="0 0 40 35" fill="none" xmlns="http://www.w3.org/2000/svg">
<path d="M18.3334 16.6666C18.0125 16.6666 17.738 16.5525 17.5097 16.3242C17.2814 16.096 17.1671 15.8212 17.1667 15.5V8.49998C17.1667 8.17915 17.281 7.90459 17.5097 7.67631C17.7384 7.44804 18.0129 7.3337 18.3334 7.33331H21.8334L23 8.49998H27.6667C27.9875 8.49998 28.2623 8.61431 28.4909 8.84298C28.7196 9.07165 28.8337 9.3462 28.8334 9.66665V15.5C28.8334 15.8208 28.7192 16.0956 28.4909 16.3242C28.2627 16.5529 27.9879 16.667 27.6667 16.6666H18.3334Z" fill="#69A0C9"/>
<path d="M18.3334 28.6666C18.0125 28.6666 17.738 28.5525 17.5097 28.3242C17.2814 28.096 17.1671 27.8212 17.1667 27.5V20.5C17.1667 20.1791 17.281 19.9046 17.5097 19.6763C17.7384 19.448 18.0129 19.3337 18.3334 19.3333H21.8334L23 20.5H27.6667C27.9875 20.5 28.2623 20.6143 28.4909 20.843C28.7196 21.0716 28.8337 21.3462 28.8334 21.6666V27.5C28.8334 27.8208 28.7192 28.0956 28.4909 28.3242C28.2627 28.5529 27.9879 28.667 27.6667 28.6666H18.3334Z" fill="#69A0C9"/>
<path opacity="0.5" d="M10 7H11V25C10.4477 25 10 24.5523 10 24V7Z" fill="#69A0C9"/>
<rect opacity="0.5" x="11" y="24" width="6" height="1" fill="#69A0C9"/>
<rect opacity="0.5" x="11" y="12" width="6" height="1" fill="#69A0C9"/>
</svg>
