<svg width="40" height="35" viewBox="0 0 40 35" fill="none" xmlns="http://www.w3.org/2000/svg">
<g clip-path="url(#clip0_4157_8885)">
<path d="M37 0C38.6569 0 40 1.34315 40 3V32C40 33.6569 38.6569 35 37 35H3C1.34315 35 4.42933e-08 33.6569 0 32V3C0 1.34315 1.34315 6.44255e-08 3 0H37Z" fill="#6EA3CD"/>
<path d="M10 6C9.46957 6 8.96086 6.21071 8.58579 6.58579C8.21071 6.96086 8 7.46957 8 8V14.667C8 15.1974 8.21071 15.7061 8.58579 16.0812C8.96086 16.4563 9.46957 16.667 10 16.667H16.667C17.1974 16.667 17.7061 16.4563 18.0812 16.0812C18.4563 15.7061 18.667 15.1974 18.667 14.667V13.22C18.2354 13.3727 17.7646 13.3727 17.333 13.22V14.667C17.3327 14.8436 17.2625 15.0128 17.1376 15.1376C17.0128 15.2625 16.8436 15.3327 16.667 15.333H10C9.82327 15.333 9.65377 15.2629 9.52871 15.138C9.40365 15.0131 9.33326 14.8437 9.333 14.667V8C9.333 7.632 9.632 7.333 10 7.333H16.667C17.035 7.333 17.333 7.632 17.333 8V9.447C17.7646 9.29433 18.2354 9.29433 18.667 9.447V8C18.667 7.46957 18.4563 6.96086 18.0812 6.58579C17.7061 6.21071 17.1974 6 16.667 6H10ZM21.333 8C21.333 7.46957 21.5437 6.96086 21.9188 6.58579C22.2939 6.21071 22.8026 6 23.333 6H30C30.5304 6 31.0391 6.21071 31.4142 6.58579C31.7893 6.96086 32 7.46957 32 8V14.667C32 15.1974 31.7893 15.7061 31.4142 16.0812C31.0391 16.4563 30.5304 16.667 30 16.667H28.553C28.7057 16.2354 28.7057 15.7646 28.553 15.333H30C30.1767 15.333 30.3462 15.2629 30.4713 15.138C30.5963 15.0131 30.6667 14.8437 30.667 14.667V8C30.667 7.8231 30.5967 7.65345 30.4716 7.52836C30.3466 7.40327 30.1769 7.333 30 7.333H23.333C23.1563 7.33326 22.9869 7.40365 22.862 7.52871C22.7371 7.65377 22.667 7.82327 22.667 8V9.447C22.2354 9.29433 21.7646 9.29433 21.333 9.447V8ZM24.781 15.333H23.333C23.1564 15.3327 22.9872 15.2625 22.8624 15.1376C22.7375 15.0128 22.6673 14.8436 22.667 14.667V13.22C22.2354 13.3727 21.7646 13.3727 21.333 13.22V14.667C21.333 15.1974 21.5437 15.7061 21.9188 16.0812C22.2939 16.4563 22.8026 16.667 23.333 16.667H24.78C24.6273 16.2354 24.6283 15.7646 24.781 15.333ZM8 21.333C8 20.8026 8.21071 20.2939 8.58579 19.9188C8.96086 19.5437 9.46957 19.333 10 19.333H16.667C17.1974 19.333 17.7061 19.5437 18.0812 19.9188C18.4563 20.2939 18.667 20.8026 18.667 21.333V22.78C18.2354 22.6273 17.7646 22.6273 17.333 22.78V21.333C17.3327 21.1564 17.2625 20.9872 17.1376 20.8624C17.0128 20.7375 16.8436 20.6673 16.667 20.667H10C9.82327 20.667 9.65377 20.7371 9.52871 20.862C9.40365 20.9869 9.33326 21.1563 9.333 21.333V28C9.333 28.368 9.632 28.667 10 28.667H16.667C16.8437 28.6667 17.0131 28.5963 17.138 28.4713C17.2629 28.3462 17.333 28.1767 17.333 28V26.553C17.7646 26.7057 18.2354 26.7057 18.667 26.553V28C18.667 28.5304 18.4563 29.0391 18.0812 29.4142C17.7061 29.7893 17.1974 30 16.667 30H10C9.46957 30 8.96086 29.7893 8.58579 29.4142C8.21071 29.0391 8 28.5304 8 28L8 21.333ZM30 20.667H28.553C28.7057 20.2354 28.7057 19.7646 28.553 19.333H30C30.5304 19.333 31.0391 19.5437 31.4142 19.9188C31.7893 20.2939 32 20.8026 32 21.333V28C32 28.5304 31.7893 29.0391 31.4142 29.4142C31.0391 29.7893 30.5304 30 30 30H23.333C22.8026 30 22.2939 29.7893 21.9188 29.4142C21.5437 29.0391 21.333 28.5304 21.333 28V26.553C21.7646 26.7057 22.2354 26.7057 22.667 26.553V28C22.667 28.368 22.965 28.667 23.333 28.667H30C30.1769 28.667 30.3466 28.5967 30.4716 28.4716C30.5967 28.3466 30.667 28.1769 30.667 28V21.333C30.6667 21.1563 30.5963 20.9869 30.4713 20.862C30.3462 20.7371 30.1767 20.667 30 20.667ZM22.667 22.781V21.333C22.667 20.965 22.965 20.667 23.333 20.667H24.78C24.6273 20.2354 24.6273 19.7646 24.78 19.333H23.333C22.8026 19.333 22.2939 19.5437 21.9188 19.9188C21.5437 20.2939 21.333 20.8026 21.333 21.333V22.78C21.7646 22.6273 22.2354 22.6283 22.667 22.781ZM28 20C27.9999 20.2493 27.9299 20.4935 27.798 20.705C27.6661 20.9165 27.4775 21.0867 27.2537 21.1964C27.0298 21.3061 26.7797 21.3509 26.5318 21.3256C26.2838 21.3003 26.0479 21.206 25.8508 21.0534C25.6537 20.9008 25.5034 20.6959 25.4169 20.4622C25.3304 20.2284 25.3111 19.9751 25.3613 19.7309C25.4115 19.4868 25.5292 19.2616 25.701 19.081C25.8727 18.9003 26.0917 18.7715 26.333 18.709V17.29C26.0186 17.2088 25.7446 17.0158 25.5624 16.7471C25.3802 16.4783 25.3022 16.1524 25.3431 15.8303C25.384 15.5082 25.541 15.2121 25.7846 14.9974C26.0283 14.7828 26.3418 14.6644 26.6665 14.6644C26.9912 14.6644 27.3047 14.7828 27.5484 14.9974C27.792 15.2121 27.949 15.5082 27.9899 15.8303C28.0308 16.1524 27.9528 16.4783 27.7706 16.7471C27.5884 17.0158 27.3144 17.2088 27 17.29V18.708C27.575 18.856 28 19.378 28 19.999M18 25.999C18.621 25.999 19.143 25.574 19.291 24.999H20.709C20.7902 25.3134 20.9832 25.5874 21.2519 25.7696C21.5207 25.9518 21.8466 26.0298 22.1687 25.9889C22.4908 25.948 22.7869 25.791 23.0016 25.5474C23.2162 25.3037 23.3346 24.9902 23.3346 24.6655C23.3346 24.3408 23.2162 24.0273 23.0016 23.7836C22.7869 23.54 22.4908 23.383 22.1687 23.3421C21.8466 23.3012 21.5207 23.3792 21.2519 23.5614C20.9832 23.7436 20.7902 24.0176 20.709 24.332H19.29C19.2275 24.0904 19.0985 23.8712 18.9177 23.6992C18.7368 23.5273 18.5114 23.4095 18.2669 23.3593C18.0225 23.3091 17.7689 23.3284 17.5349 23.4152C17.3009 23.5019 17.0959 23.6525 16.9432 23.8499C16.7906 24.0473 16.6964 24.2836 16.6713 24.5318C16.6462 24.7801 16.6912 25.0305 16.8013 25.2544C16.9113 25.4784 17.082 25.667 17.2939 25.7988C17.5058 25.9306 17.7505 25.9993 18 25.999ZM19.291 11.667C19.2098 11.9814 19.0168 12.2554 18.7481 12.4376C18.4793 12.6198 18.1534 12.6978 17.8313 12.6569C17.5092 12.616 17.2131 12.459 16.9984 12.2154C16.7838 11.9717 16.6654 11.6582 16.6654 11.3335C16.6654 11.0088 16.7838 10.6953 16.9984 10.4516C17.2131 10.208 17.5092 10.051 17.8313 10.0101C18.1534 9.96922 18.4793 10.0472 18.7481 10.2294C19.0168 10.4116 19.2098 10.6856 19.291 11H20.709C20.7902 10.6856 20.9832 10.4116 21.2519 10.2294C21.5207 10.0472 21.8466 9.96922 22.1687 10.0101C22.4908 10.051 22.7869 10.208 23.0016 10.4516C23.2162 10.6953 23.3346 11.0088 23.3346 11.3335C23.3346 11.6582 23.2162 11.9717 23.0016 12.2154C22.7869 12.459 22.4908 12.616 22.1687 12.6569C21.8466 12.6978 21.5207 12.6198 21.2519 12.4376C20.9832 12.2554 20.7902 11.9814 20.709 11.667H19.291Z" fill="white"/>
</g>
<defs>
<clipPath id="clip0_4157_8885">
<rect width="40" height="35" fill="white"/>
</clipPath>
</defs>
</svg>
