<svg width="156" height="60" viewBox="0 0 156 60" fill="none" xmlns="http://www.w3.org/2000/svg">
<g clip-path="url(#clip0_5142_3286)">
<path d="M7.8744 59.4774C15.4109 34.3841 36.142 14.948 61.9804 9.2713C52.775 20.321 45.3968 39.7787 42.1415 59.4774H49.7799C54.6128 31.7656 67.7712 7.5636 77.6117 7.5636C87.4522 7.5636 100.611 31.7657 105.444 59.4774H113.075C111.227 48.3247 108.035 37.1206 103.791 27.3319C100.242 19.1431 96.667 13.3538 93.2871 9.2815C119.105 14.9707 139.817 34.3986 147.35 59.4774H155.224C146.002 25.2589 114.704 0 77.6117 0C40.5197 0 9.2218 25.2589 0 59.4774H7.8744Z" fill="#6EA3CD"/>
</g>
<defs>
<clipPath id="clip0_5142_3286">
<rect width="155.224" height="59.4774" fill="white"/>
</clipPath>
</defs>
</svg>
